<?xml version="1.0" encoding="UTF-8" standalone="no"?>
<svg
   version="1.1"
   viewBox="0 0 53.076845 53.076843"
   class="rounded-lg overflow-hidden"
   matcher="0.17266598297225633"
   id="svg13"
   sodipodi:docname="favicon.svg"
   width="53.076843"
   height="53.076843"
   inkscape:version="1.3 (1:1.3+202307231459+0e150ed6c4)"
   xmlns:inkscape="http://www.inkscape.org/namespaces/inkscape"
   xmlns:sodipodi="http://sodipodi.sourceforge.net/DTD/sodipodi-0.dtd"
   xmlns="http://www.w3.org/2000/svg"
   xmlns:svg="http://www.w3.org/2000/svg">
  <defs
     id="defs13">
    <inkscape:path-effect
       effect="fillet_chamfer"
       id="path-effect23"
       is_visible="true"
       lpeversion="1"
       nodesatellites_param="F,0,1,1,0,5,0,1 @ F,0,0,1,0,5,0,1 @ F,0,1,1,0,5,0,1 @ F,0,1,1,0,5,0,1"
       radius="0"
       unit="px"
       method="auto"
       mode="F"
       chamfer_steps="1"
       flexible="false"
       use_knot_distance="true"
       apply_no_radius="true"
       apply_with_radius="true"
       only_selected="false"
       hide_knots="false" />
  </defs>
  <sodipodi:namedview
     id="namedview13"
     pagecolor="#ffffff"
     bordercolor="#000000"
     borderopacity="0.25"
     inkscape:showpageshadow="2"
     inkscape:pageopacity="0.0"
     inkscape:pagecheckerboard="0"
     inkscape:deskcolor="#d1d1d1"
     inkscape:zoom="10.24"
     inkscape:cx="32.177734"
     inkscape:cy="27.978516"
     inkscape:window-width="1366"
     inkscape:window-height="716"
     inkscape:window-x="0"
     inkscape:window-y="0"
     inkscape:window-maximized="1"
     inkscape:current-layer="svg13" />
  <path
     id="rect23"
     style="opacity:1;vector-effect:none;fill:#122101;stroke-width:2.33144;fill-opacity:1"
     d="m 5,0 h 43.076843 a 5,5 45 0 1 5,5 v 43.076843 a 5,5 135 0 1 -5,5 H 5 a 5,5 45 0 1 -5,-5 V 5 A 5,5 135 0 1 5,0 Z"
     inkscape:path-effect="#path-effect23"
     inkscape:original-d="M 0,0 H 53.076843 V 53.076843 H 0 Z" />
  <g
     transform="matrix(0.78438265,0,0,0.78438265,-21.587398,6.8988217)"
     id="g5">
    <svg
       viewBox="0 0 395.52 71.555098"
       height="71.555099"
       width="395.51999"
       version="1.1"
       id="svg5">
      <g
         id="textblocktransform">
        <svg
           viewBox="0 0 395.52 71.555098"
           height="71.555099"
           width="395.51999"
           id="textblock"
           version="1.1">
          <g
             id="g2">
            <svg
               viewBox="0 0 395.52 41.658389"
               height="41.65839"
               width="395.51999"
               version="1.1"
               id="svg2">
              <g
                 id="g1">
                <svg
                   width="395.51999"
                   viewBox="1.1 -34.900002 337.01999 35.5"
                   height="41.65839"
                   data-palette-color="#f000b8"
                   version="1.1"
                   id="svg1" />
              </g>
            </svg>
          </g>
          <g
             transform="translate(0,51.492935)"
             id="g4">
            <svg
               viewBox="0 0 232.20979 20.062163"
               height="20.062164"
               width="232.20979"
               version="1.1"
               id="svg4">
              <g
                 id="g3">
                <svg
                   width="232.20979"
                   viewBox="4 -36.299999 535.84998 46.299999"
                   height="20.062164"
                   data-palette-color="#f000b8"
                   version="1.1"
                   id="svg3" />
              </g>
            </svg>
          </g>
        </svg>
      </g>
    </svg>
  </g>
  <g
     id="g11"
     transform="matrix(0.78438265,0,0,0.78438265,-106.86837,-3.8213543)" />
  <svg
     viewBox="0 0 98.889146 98.889146"
     height="98.889145"
     width="98.889145"
     version="1.1"
     id="svg10"
     transform="translate(5.7607765,6.8988237)">
    <g
       id="g10">
      <svg
         version="1.1"
         x="0"
         y="0"
         viewBox="0 6 96 96"
         enable-background="new -2 4 100 100"
         height="98.889145"
         width="98.889145"
         class="icon-icon-0"
         data-fill-palette-color="accent"
         id="icon-0">
        <g
           fill="#f000b8"
           data-fill-palette-color="accent"
           id="g9" />
      </svg>
    </g>
  </svg>
  <path
     id="text-0"
     style="fill:#7ddf00;stroke:none;stroke-width:1.02741;fill-opacity:1"
     d="M 11.358472,44.158529 V 13.84989 H 3.6166918 V 8.9183134 H 31.509265 L 28.773102,13.84989 H 17.060619 v 30.308639 z m 23.358404,0.616447 c -4.246628,0 -7.739824,-0.883574 -10.479594,-2.650721 -2.73976,-1.7603 -4.109639,-4.438419 -4.109639,-8.03436 v 0 l 0.05133,-1.07878 h 5.650767 c -0.06854,0.479459 -0.102802,0.821929 -0.102802,1.027412 v 0 c 0,1.917834 0.804803,3.380182 2.41442,4.387046 1.609617,1.013712 3.784301,1.520569 6.524061,1.520569 v 0 c 3.013741,0 5.29117,-0.445212 6.832286,-1.335634 1.541116,-0.890424 2.311673,-2.174688 2.311673,-3.852793 v 0 c 0,-1.198647 -0.421242,-2.184963 -1.263717,-2.958946 -0.83562,-0.767136 -1.897285,-1.38358 -3.184966,-1.849339 -1.280842,-0.458914 -3.01717,-0.979469 -5.208986,-1.561667 v 0 C 31.37771,27.668575 29.107133,26.956237 27.339975,26.250746 25.579681,25.552106 24.083092,24.524695 22.850191,23.168512 21.61729,21.819179 21.000848,20.048606 21.000848,17.856795 v 0 c 0,-3.116481 1.284267,-5.486378 3.852801,-7.109688 2.568522,-1.63016 5.907615,-2.44524 10.017254,-2.44524 v 0 c 4.041149,0 7.318593,0.8390525 9.832334,2.517158 2.520583,1.678106 3.780873,4.195264 3.780873,7.551476 v 0 0.616446 H 42.93609 V 18.31913 c 0,-1.64386 -0.736313,-2.921274 -2.208938,-3.832246 -1.472627,-0.904121 -3.390462,-1.356182 -5.753502,-1.356182 v 0 c -2.534279,0 -4.548006,0.376715 -6.041179,1.130151 -1.486324,0.753436 -2.22949,1.849341 -2.22949,3.287718 v 0 c 0,1.061658 0.410963,1.941808 1.2329,2.640448 0.821926,0.705489 1.849332,1.280841 3.082233,1.72605 1.232899,0.445213 2.910995,0.941796 5.034311,1.489748 v 0 c 2.87675,0.753436 5.195278,1.472623 6.955583,2.157563 1.767146,0.684942 3.284287,1.702078 4.55143,3.051412 1.267145,1.356184 1.900713,3.130181 1.900713,5.321992 v 0 c 0,3.767176 -1.318514,6.513789 -3.955538,8.239841 -2.637025,1.732901 -6.232967,2.599351 -10.787824,2.599351 z"
     sodipodi:nodetypes="cccccccccccscccsscsssssccssccsscsscscccscsscsscsssccssccc" />
</svg>
