<?xml version="1.0" encoding="UTF-8" standalone="no"?>
<svg
   version="1.1"
   viewBox="0 0 53.076845 53.076843"
   class="rounded-lg overflow-hidden"
   matcher="0.17266598297225633"
   id="svg13"
   sodipodi:docname="favicon.svg"
   width="53.076843"
   height="53.076843"
   inkscape:version="1.3 (1:1.3+202307231459+0e150ed6c4)"
   xmlns:inkscape="http://www.inkscape.org/namespaces/inkscape"
   xmlns:sodipodi="http://sodipodi.sourceforge.net/DTD/sodipodi-0.dtd"
   xmlns="http://www.w3.org/2000/svg"
   xmlns:svg="http://www.w3.org/2000/svg">
  <defs
     id="defs13">
    <inkscape:path-effect
       effect="fillet_chamfer"
       id="path-effect23"
       is_visible="true"
       lpeversion="1"
       nodesatellites_param="F,0,1,1,0,7.7111701,0,1 @ F,0,0,1,0,7.7111701,0,1 @ F,0,1,1,0,7.7111701,0,1 @ F,0,1,1,0,7.7111701,0,1"
       radius="0"
       unit="px"
       method="auto"
       mode="F"
       chamfer_steps="1"
       flexible="false"
       use_knot_distance="true"
       apply_no_radius="true"
       apply_with_radius="true"
       only_selected="false"
       hide_knots="false" />
  </defs>
  <sodipodi:namedview
     id="namedview13"
     pagecolor="#ffffff"
     bordercolor="#000000"
     borderopacity="0.25"
     inkscape:showpageshadow="2"
     inkscape:pageopacity="0.0"
     inkscape:pagecheckerboard="0"
     inkscape:deskcolor="#d1d1d1"
     inkscape:zoom="5.12"
     inkscape:cx="27.246094"
     inkscape:cy="8.59375"
     inkscape:window-width="1366"
     inkscape:window-height="716"
     inkscape:window-x="0"
     inkscape:window-y="0"
     inkscape:window-maximized="1"
     inkscape:current-layer="svg13" />
  <path
     id="rect23"
     style="opacity:1;vector-effect:none;fill:#ffffff;stroke-width:2.33144"
     d="M 7.7111701,0 H 45.365673 a 7.7111701,7.7111701 45 0 1 7.71117,7.7111701 V 45.365673 a 7.7111701,7.7111701 135 0 1 -7.71117,7.71117 H 7.7111701 A 7.7111701,7.7111701 45 0 1 0,45.365673 V 7.7111701 A 7.7111701,7.7111701 135 0 1 7.7111701,0 Z"
     inkscape:path-effect="#path-effect23"
     inkscape:original-d="M 0,0 H 53.076843 V 53.076843 H 0 Z" />
  <g
     transform="matrix(0.78438265,0,0,0.78438265,-21.587398,6.8988217)"
     id="g5">
    <svg
       viewBox="0 0 395.52 71.555098"
       height="71.555099"
       width="395.51999"
       version="1.1"
       id="svg5">
      <g
         id="textblocktransform">
        <svg
           viewBox="0 0 395.52 71.555098"
           height="71.555099"
           width="395.51999"
           id="textblock"
           version="1.1">
          <g
             id="g2">
            <svg
               viewBox="0 0 395.52 41.658389"
               height="41.65839"
               width="395.51999"
               version="1.1"
               id="svg2">
              <g
                 id="g1">
                <svg
                   width="395.51999"
                   viewBox="1.1 -34.900002 337.01999 35.5"
                   height="41.65839"
                   data-palette-color="#f000b8"
                   version="1.1"
                   id="svg1" />
              </g>
            </svg>
          </g>
          <g
             transform="translate(0,51.492935)"
             id="g4">
            <svg
               viewBox="0 0 232.20979 20.062163"
               height="20.062164"
               width="232.20979"
               version="1.1"
               id="svg4">
              <g
                 id="g3">
                <svg
                   width="232.20979"
                   viewBox="4 -36.299999 535.84998 46.299999"
                   height="20.062164"
                   data-palette-color="#f000b8"
                   version="1.1"
                   id="svg3" />
              </g>
            </svg>
          </g>
        </svg>
      </g>
    </svg>
  </g>
  <g
     id="g11"
     transform="matrix(0.78438265,0,0,0.78438265,-106.86837,-3.8213543)" />
  <svg
     viewBox="0 0 98.889146 98.889146"
     height="98.889145"
     width="98.889145"
     version="1.1"
     id="svg10"
     transform="translate(5.7607765,6.8988237)">
    <g
       id="g10">
      <svg
         version="1.1"
         x="0"
         y="0"
         viewBox="0 6 96 96"
         enable-background="new -2 4 100 100"
         height="98.889145"
         width="98.889145"
         class="icon-icon-0"
         data-fill-palette-color="accent"
         id="icon-0">
        <g
           fill="#f000b8"
           data-fill-palette-color="accent"
           id="g9" />
      </svg>
    </g>
  </svg>
  <path
     id="text-0"
     style="fill:#f000b8;stroke:none;stroke-width:1.14297"
     d="M 9.6510078,46.140463 V 12.422666 H 1.0384213 V 6.9363792 H 32.06839 L 29.02446,12.422666 H 15.99454 v 33.717797 z m 25.9857902,0.685786 c -4.724295,0 -8.610411,-0.98296 -11.658354,-2.948878 -3.047932,-1.958301 -4.571897,-4.937658 -4.571897,-8.938076 v 0 l 0.05711,-1.200123 h 6.286373 c -0.07625,0.53339 -0.114365,0.914381 -0.114365,1.142977 v 0 c 0,2.133555 0.895328,3.76039 2.685997,4.880507 1.790669,1.127736 4.209964,1.691605 7.257896,1.691605 v 0 c 3.352731,0 5.886328,-0.49529 7.600791,-1.485868 1.714463,-0.99058 2.571694,-2.4193 2.571694,-4.286161 v 0 c 0,-1.333472 -0.468624,-2.43073 -1.405862,-3.291772 -0.929612,-0.853424 -2.110694,-1.539207 -3.543216,-2.057355 -1.424912,-0.510533 -3.356545,-1.089641 -5.7949,-1.737326 v 0 c -3.086022,-0.800083 -5.611996,-1.592546 -7.577927,-2.377391 -1.958294,-0.777224 -3.623222,-1.9202 -4.994801,-3.428928 -1.371579,-1.501108 -2.05736,-3.470837 -2.05736,-5.909186 v 0 c 0,-3.467028 1.428723,-6.103494 4.28617,-7.9093964 2.857433,-1.8135222 6.572112,-2.7202835 11.144008,-2.7202835 v 0 c 4.495703,0 8.141799,0.9334303 10.938289,2.8002913 2.804102,1.8668616 4.206151,4.6671526 4.206151,8.4008766 v 0 0.685785 h -6.172069 v -0.742934 c 0,-1.828764 -0.819135,-3.249863 -2.457403,-4.263303 -1.63827,-1.005818 -3.771825,-1.508727 -6.400664,-1.508727 v 0 c -2.819338,0 -5.059571,0.419089 -6.720699,1.257272 -1.653507,0.838183 -2.480266,2.057358 -2.480266,3.657525 v 0 c 0,1.181075 0.457189,2.160225 1.371579,2.937449 0.914377,0.784844 2.057347,1.424912 3.428926,1.920199 1.371578,0.495291 3.238428,1.04773 5.600578,1.657317 v 0 c 3.200331,0.838183 5.77965,1.638266 7.737956,2.400249 1.965917,0.761985 3.653708,1.89353 5.063381,3.394639 1.409676,1.508729 2.114508,3.482268 2.114508,5.920617 v 0 c 0,4.190913 -1.466822,7.246469 -4.400462,9.166669 -2.933641,1.92782 -6.93406,2.89173 -12.001253,2.89173 z"
     sodipodi:nodetypes="cccccccccccscccsscsssssccssccsscsscscccscsscsscsssccssccc" />
</svg>
