<?xml version="1.0" encoding="UTF-8" standalone="no"?>
<svg
   version="1.1"
   viewBox="0 0 53.076845 53.076843"
   class="rounded-lg overflow-hidden"
   matcher="0.17266598297225633"
   id="svg13"
   sodipodi:docname="favicon.svg"
   width="53.076843"
   height="53.076843"
   inkscape:version="1.3 (1:1.3+202307231459+0e150ed6c4)"
   xmlns:inkscape="http://www.inkscape.org/namespaces/inkscape"
   xmlns:sodipodi="http://sodipodi.sourceforge.net/DTD/sodipodi-0.dtd"
   xmlns:xlink="http://www.w3.org/1999/xlink"
   xmlns="http://www.w3.org/2000/svg"
   xmlns:svg="http://www.w3.org/2000/svg">
  <defs
     id="defs13">
    <inkscape:path-effect
       effect="slice"
       start_point="53.357156,16.406726"
       end_point="8.0651301,38.643855"
       center_point="30.711143,27.525291"
       id="path-effect1"
       is_visible="true"
       lpeversion="1.2"
       lpesatellites=""
       allow_transforms="true" />
    <inkscape:path-effect
       effect="fillet_chamfer"
       id="path-effect6"
       is_visible="true"
       lpeversion="1"
       nodesatellites_param="F,0,0,1,0,10,0,1 @ F,0,0,1,0,10,0,1 @ F,0,0,1,0,10,0,1 @ F,0,0,1,0,10,0,1"
       radius="0"
       unit="px"
       method="auto"
       mode="F"
       chamfer_steps="1"
       flexible="false"
       use_knot_distance="true"
       apply_no_radius="true"
       apply_with_radius="true"
       only_selected="false"
       hide_knots="false" />
    <linearGradient
       id="linearGradient5"
       inkscape:collect="always">
      <stop
         style="stop-color:#122101;stop-opacity:1;"
         offset="0"
         id="stop5" />
      <stop
         style="stop-color:#7bc916;stop-opacity:1;"
         offset="0.80809814"
         id="stop6" />
    </linearGradient>
    <inkscape:path-effect
       effect="fillet_chamfer"
       id="path-effect23"
       is_visible="true"
       lpeversion="1"
       nodesatellites_param="F,0,1,1,0,5,0,1 @ F,0,0,1,0,5,0,1 @ F,0,1,1,0,5,0,1 @ F,0,1,1,0,5,0,1"
       radius="0"
       unit="px"
       method="auto"
       mode="F"
       chamfer_steps="1"
       flexible="false"
       use_knot_distance="true"
       apply_no_radius="true"
       apply_with_radius="true"
       only_selected="false"
       hide_knots="false" />
    <radialGradient
       inkscape:collect="always"
       xlink:href="#linearGradient5"
       id="radialGradient6"
       cx="26.717218"
       cy="12.900612"
       fx="26.717218"
       fy="12.900612"
       r="8.0595703"
       gradientTransform="matrix(1.2471074,-0.67448164,0.24812842,0.45878609,-10.21778,23.518765)"
       gradientUnits="userSpaceOnUse" />
  </defs>
  <sodipodi:namedview
     id="namedview13"
     pagecolor="#ffffff"
     bordercolor="#000000"
     borderopacity="0.25"
     inkscape:showpageshadow="2"
     inkscape:pageopacity="0.0"
     inkscape:pagecheckerboard="0"
     inkscape:deskcolor="#d1d1d1"
     inkscape:zoom="7.2407734"
     inkscape:cx="27.137985"
     inkscape:cy="14.63932"
     inkscape:window-width="1366"
     inkscape:window-height="716"
     inkscape:window-x="0"
     inkscape:window-y="0"
     inkscape:window-maximized="1"
     inkscape:current-layer="svg13" />
  <path
     id="rect23"
     style="opacity:1;vector-effect:none;fill:#122101;fill-opacity:1;stroke-width:2.33144"
     d="m 53.076843,10 v 33.076843 a 10,10 135 0 1 -10,10 H 10 a 10,10 45 0 1 -9.99999970240163,-10 L -1.4306197e-7,10 A 9.9999999,9.9999999 135 0 1 9.9999997,4.3082159e-7 l 33.0768433,-10e-15 A 10,10 45 0 1 53.076843,10 Z"
     inkscape:path-effect="#path-effect6"
     inkscape:original-d="M 53.076843,4.3082158e-7 V 53.076843 H 4.3082159e-7 L -2.7628519e-7,4.3082159e-7 Z" />
  <g
     transform="matrix(0.78438265,0,0,0.78438265,-21.587398,6.8988217)"
     id="g5">
    <svg
       viewBox="0 0 395.52 71.555098"
       height="71.555099"
       width="395.51999"
       version="1.1"
       id="svg5">
      <g
         id="textblocktransform">
        <svg
           viewBox="0 0 395.52 71.555098"
           height="71.555099"
           width="395.51999"
           id="textblock"
           version="1.1">
          <g
             id="g2">
            <svg
               viewBox="0 0 395.52 41.658389"
               height="41.65839"
               width="395.51999"
               version="1.1"
               id="svg2">
              <g
                 id="g1">
                <svg
                   width="395.51999"
                   viewBox="1.1 -34.900002 337.01999 35.5"
                   height="41.65839"
                   data-palette-color="#f000b8"
                   version="1.1"
                   id="svg1" />
              </g>
            </svg>
          </g>
          <g
             transform="translate(0,51.492935)"
             id="g4">
            <svg
               viewBox="0 0 232.20979 20.062163"
               height="20.062164"
               width="232.20979"
               version="1.1"
               id="svg4">
              <g
                 id="g3">
                <svg
                   width="232.20979"
                   viewBox="4 -36.299999 535.84998 46.299999"
                   height="20.062164"
                   data-palette-color="#f000b8"
                   version="1.1"
                   id="svg3" />
              </g>
            </svg>
          </g>
        </svg>
      </g>
    </svg>
  </g>
  <g
     id="g11"
     transform="matrix(0.78438265,0,0,0.78438265,-106.86837,-3.8213543)" />
  <svg
     viewBox="0 0 98.889146 98.889146"
     height="98.889145"
     width="98.889145"
     version="1.1"
     id="svg10"
     transform="translate(5.7607765,6.8988237)">
    <g
       id="g10">
      <svg
         version="1.1"
         x="0"
         y="0"
         viewBox="0 6 96 96"
         enable-background="new -2 4 100 100"
         height="98.889145"
         width="98.889145"
         class="icon-icon-0"
         data-fill-palette-color="accent"
         id="icon-0">
        <g
           fill="#f000b8"
           data-fill-palette-color="accent"
           id="g9" />
      </svg>
    </g>
  </svg>
  <path
     id="path1"
     style="fill:#7bc916;fill-opacity:1;stroke:none;stroke-width:1.02741"
     d="M 33.927734 8.3027344 C 29.818107 8.3027344 26.478672 9.1178915 23.910156 10.748047 C 21.341631 12.371351 20.056641 14.74095 20.056641 17.857422 C 20.056641 20.049227 20.673352 21.818639 21.90625 23.167969 C 23.139148 24.524146 24.636196 25.551363 26.396484 26.25 C 27.546173 26.708984 28.908878 27.171449 30.484375 27.636719 C 31.330529 27.886603 32.237766 28.137379 33.207031 28.388672 C 35.398841 28.970867 37.135177 29.490305 38.416016 29.949219 C 39.703691 30.414975 40.765945 31.031695 41.601562 31.798828 C 42.444037 32.572808 42.865234 33.559171 42.865234 34.757812 C 42.865234 36.435914 42.095799 37.720907 40.554688 38.611328 C 39.013576 39.501747 36.734435 39.945312 33.720703 39.945312 C 30.980952 39.945313 28.806877 39.43949 27.197266 38.425781 C 25.587652 37.41892 24.783203 35.956893 24.783203 34.039062 C 24.783203 33.899841 24.798408 31.861311 24.830078 30.412109 L 19.193359 33.179688 L 19.183594 34.089844 C 19.183594 37.685773 20.553215 40.364706 23.292969 42.125 C 26.03273 43.892141 29.52705 44.775391 33.927734 44.775391 C 38.328421 44.775391 41.923531 43.908679 44.560547 42.175781 C 47.197562 40.449735 48.515625 37.702711 48.515625 33.935547 C 48.515625 31.743742 47.882376 29.969462 46.615234 28.613281 C 45.348097 27.263953 43.831593 26.247439 42.064453 25.5625 C 40.860598 25.094075 39.395798 24.610024 37.669922 24.109375 L 37.667969 24.109375 C 36.870737 23.878129 36.018071 23.64229 35.109375 23.404297 C 32.986065 22.856345 31.307115 22.361226 30.074219 21.916016 C 28.841321 21.470807 27.814112 20.894939 26.992188 20.189453 C 26.170252 19.490816 25.759766 18.610483 25.759766 17.548828 C 25.759766 16.110457 26.501963 15.015152 27.988281 14.261719 C 29.481451 13.508286 31.495024 13.130859 34.029297 13.130859 C 36.392331 13.130859 38.310582 13.58221 39.783203 14.486328 C 41.255825 15.397297 41.992188 16.674505 41.992188 18.318359 L 41.992188 21.986328 L 47.541016 19.261719 L 47.541016 18.371094 C 47.541016 15.014891 46.28034 12.496462 43.759766 10.818359 C 41.246031 9.1402598 37.968871 8.3027344 33.927734 8.3027344 z " />
  <path
     style="fill:#7bc916;fill-opacity:1;stroke:none;stroke-width:1.02741"
     d="M 11.348904,44.161823 V 13.233444 H 4.5606084 V 8.301867 H 33.499697 l -2.736163,4.931577 H 17.051051 v 30.928379 z"
     id="text-0"
     sodipodi:nodetypes="ccccccccc" />
  <path
     id="rect1"
     style="fill:url(#radialGradient6);fill-opacity:1;stroke-width:2.07009;-inkscape-stroke:none"
     d="m 17.380302,8.3027344 v 4.9316406 h 3.945312 c 0.628343,-0.96461 1.487923,-1.793619 2.583985,-2.486328 2.476077,-1.5714885 5.675724,-2.3789886 9.583984,-2.435547 l 0.0059,-0.00977 z" />
</svg>
