<?xml version="1.0" encoding="UTF-8" standalone="no"?>
<!-- Created with Inkscape (http://www.inkscape.org/) -->

<svg
   width="150mm"
   height="150mm"
   viewBox="0 0 150 150"
   version="1.1"
   id="svg1"
   xml:space="preserve"
   inkscape:version="1.3.2 (091e20e, 2023-11-25)"
   sodipodi:docname="trill-studio-logo.svg"
   inkscape:export-filename="trillfa-studio-logo-2.png"
   inkscape:export-xdpi="96"
   inkscape:export-ydpi="96"
   xmlns:inkscape="http://www.inkscape.org/namespaces/inkscape"
   xmlns:sodipodi="http://sodipodi.sourceforge.net/DTD/sodipodi-0.dtd"
   xmlns:xlink="http://www.w3.org/1999/xlink"
   xmlns="http://www.w3.org/2000/svg"
   xmlns:svg="http://www.w3.org/2000/svg"><sodipodi:namedview
     id="namedview1"
     pagecolor="#505050"
     bordercolor="#eeeeee"
     borderopacity="1"
     inkscape:showpageshadow="0"
     inkscape:pageopacity="0"
     inkscape:pagecheckerboard="0"
     inkscape:deskcolor="#505050"
     inkscape:document-units="mm"
     showgrid="false"
     inkscape:zoom="0.38803576"
     inkscape:cx="255.13113"
     inkscape:cy="280.90195"
     inkscape:window-width="1334"
     inkscape:window-height="736"
     inkscape:window-x="32"
     inkscape:window-y="0"
     inkscape:window-maximized="1"
     inkscape:current-layer="layer1" /><defs
     id="defs1"><linearGradient
       id="linearGradient23"
       inkscape:collect="always"><stop
         style="stop-color:#008900;stop-opacity:0.81170917;"
         offset="0"
         id="stop21" /><stop
         style="stop-color:#008000;stop-opacity:0.49803922;"
         offset="0.52943498"
         id="stop22" /><stop
         style="stop-color:#008900;stop-opacity:0;"
         offset="1"
         id="stop23" /></linearGradient><linearGradient
       id="linearGradient20"
       inkscape:collect="always"><stop
         style="stop-color:#008900;stop-opacity:0.82443744;"
         offset="0"
         id="stop18" /><stop
         style="stop-color:#008000;stop-opacity:0.49803922;"
         offset="0.52943498"
         id="stop19" /><stop
         style="stop-color:#008900;stop-opacity:0;"
         offset="1"
         id="stop20" /></linearGradient><linearGradient
       id="linearGradient17"
       inkscape:collect="always"><stop
         style="stop-color:#008900;stop-opacity:0.81170917;"
         offset="0"
         id="stop15" /><stop
         style="stop-color:#008000;stop-opacity:0.49803922;"
         offset="0.52943498"
         id="stop16" /><stop
         style="stop-color:#008900;stop-opacity:0;"
         offset="1"
         id="stop17" /></linearGradient><linearGradient
       id="linearGradient14"
       inkscape:collect="always"><stop
         style="stop-color:#008900;stop-opacity:0.81170917;"
         offset="0"
         id="stop12" /><stop
         style="stop-color:#008900;stop-opacity:0.49803922;"
         offset="0.52943498"
         id="stop13" /><stop
         style="stop-color:#008900;stop-opacity:0;"
         offset="1"
         id="stop14" /></linearGradient><linearGradient
       id="linearGradient9"
       inkscape:collect="always"><stop
         style="stop-color:#008900;stop-opacity:0.82443744;"
         offset="0"
         id="stop9" /><stop
         style="stop-color:#008900;stop-opacity:0.49803922;"
         offset="0.52943498"
         id="stop11" /><stop
         style="stop-color:#008900;stop-opacity:0;"
         offset="1"
         id="stop10" /></linearGradient><linearGradient
       id="linearGradient5"
       inkscape:collect="always"><stop
         style="stop-color:#008900;stop-opacity:0;"
         offset="0"
         id="stop6" /><stop
         style="stop-color:#008000;stop-opacity:1;"
         offset="1"
         id="stop5" /></linearGradient><clipPath
       clipPathUnits="userSpaceOnUse"
       id="clipPath1"><circle
         style="opacity:1;fill:none;fill-opacity:1;stroke:#bab003;stroke-width:2;stroke-linecap:butt;stroke-linejoin:miter;stroke-miterlimit:4;stroke-dasharray:none;stroke-dashoffset:0;stroke-opacity:1"
         id="circle2"
         cx="122.17278"
         cy="201.88713"
         r="232.90834" /></clipPath><linearGradient
       inkscape:collect="always"
       xlink:href="#linearGradient5"
       id="linearGradient6"
       x1="-120.53755"
       y1="217.72789"
       x2="253.96867"
       y2="102.58733"
       gradientUnits="userSpaceOnUse"
       gradientTransform="matrix(0.18942144,0,0,0.18942144,-89.004009,-24.389261)" /><radialGradient
       inkscape:collect="always"
       xlink:href="#linearGradient20"
       id="radialGradient10"
       cx="198.15886"
       cy="764.58636"
       fx="198.15886"
       fy="764.58636"
       r="243.48891"
       gradientTransform="matrix(0.27229506,-0.02179089,0.01284651,0.16052765,-115.38442,-18.801493)"
       gradientUnits="userSpaceOnUse" /><radialGradient
       inkscape:collect="always"
       xlink:href="#linearGradient9"
       id="radialGradient10-7"
       cx="198.15886"
       cy="764.58636"
       fx="198.15886"
       fy="764.58636"
       r="243.48891"
       gradientTransform="matrix(1.4375092,-0.11503919,0.06781975,0.84746294,-139.26835,29.499131)"
       gradientUnits="userSpaceOnUse" /><radialGradient
       inkscape:collect="always"
       xlink:href="#linearGradient23"
       id="radialGradient11"
       gradientUnits="userSpaceOnUse"
       gradientTransform="matrix(0.20651398,-0.02039737,0.01471853,0.14901834,-94.853008,-10.427904)"
       cx="333.97287"
       cy="767.98566"
       fx="333.97287"
       fy="767.98566"
       r="243.48891" /><radialGradient
       inkscape:collect="always"
       xlink:href="#linearGradient14"
       id="radialGradient11-6"
       gradientUnits="userSpaceOnUse"
       gradientTransform="matrix(1.0902355,-0.10768246,0.07770256,0.78670258,-30.878233,73.705265)"
       cx="333.97287"
       cy="767.98566"
       fx="333.97287"
       fy="767.98566"
       r="243.48891" /><radialGradient
       inkscape:collect="always"
       xlink:href="#linearGradient17"
       id="radialGradient14"
       gradientUnits="userSpaceOnUse"
       gradientTransform="matrix(0.18227674,0.05587415,-0.043886,0.14316815,-73.048124,-47.593545)"
       cx="499.9595"
       cy="165.2986"
       fx="499.9595"
       fy="165.2986"
       r="243.48891" /></defs><g
     inkscape:label="Layer 1"
     inkscape:groupmode="layer"
     id="layer1"
     transform="translate(109.80307,30.08871)"><circle
       style="fill:#003300;fill-opacity:1;stroke:#ffffff;stroke-width:5.01177;stroke-dasharray:none"
       id="path1"
       cx="-34.803062"
       cy="44.911293"
       r="72.494118" /><path
       style="display:none;opacity:1;fill:none;fill-opacity:1;stroke:#bab003;stroke-width:2;stroke-linecap:butt;stroke-linejoin:miter;stroke-miterlimit:4;stroke-dasharray:none;stroke-dashoffset:0;stroke-opacity:1"
       d="M 157.92289,95.654783 C 180.22512,84.488105 234.96718,71.80678 267.33005,114.47806"
       id="path2"
       sodipodi:nodetypes="cc" /><text
       xml:space="preserve"
       style="font-style:normal;font-variant:normal;font-weight:normal;font-stretch:normal;font-size:24.6944px;line-height:normal;font-family:AnjaliOldLipi;-inkscape-font-specification:'AnjaliOldLipi, Normal';font-variant-ligatures:normal;font-variant-position:normal;font-variant-caps:normal;font-variant-numeric:normal;font-variant-alternates:normal;font-variant-east-asian:normal;text-indent:0;text-align:start;text-decoration-line:none;text-decoration-style:solid;text-decoration-color:#000000;letter-spacing:2.64583px;word-spacing:normal;text-transform:none;writing-mode:lr-tb;direction:ltr;text-orientation:mixed;dominant-baseline:auto;baseline-shift:baseline;white-space:normal;opacity:1;fill:#ffffff;fill-opacity:1;stroke:#fffffa;stroke-width:0.586856;stroke-linecap:butt;stroke-linejoin:miter;stroke-miterlimit:4;stroke-dasharray:none;stroke-dashoffset:0;stroke-opacity:1"
       id="text2"
       transform="matrix(0.32277348,0,0,0.32277348,-76.413086,-19.167953)"><textPath
         xlink:href="#path2"
         id="textPath2"
         style="font-size:24.6944px;letter-spacing:2.64583px;stroke:#fffffa;stroke-width:0.586856;stroke-dasharray:none;stroke-opacity:1">STUDIO</textPath></text><path
       d="m -68.387841,77.620114 c -0.602388,-0.07321 -1.158988,-0.211357 -1.588513,-0.394268 -0.152743,-0.06504 -0.333006,-0.118265 -0.400585,-0.118265 -0.226361,0 -1.314585,-0.718985 -1.678338,-1.10887 -0.516173,-0.553258 -0.760344,-1.041009 -1.015377,-2.028307 -0.124504,-0.481989 -0.137541,-1.963244 -0.137541,-15.625436 0,-13.875147 0.01136,-15.124204 0.140949,-15.480123 0.18043,-0.495598 0.358966,-0.693716 0.886372,-0.983593 l 0.426693,-0.234525 1.366042,0.04639 c 1.874773,0.06366 2.429012,0.246548 2.952302,0.974197 0.161452,0.224498 0.35133,0.542685 0.421953,0.70708 0.169701,0.395025 0.393236,1.323294 0.421586,1.75071 0.01246,0.18788 0.06072,0.33858 0.107226,0.334886 0.04651,-0.0037 0.204916,-0.215056 0.352011,-0.469699 0.702962,-1.216953 1.052864,-1.706481 1.677611,-2.347055 0.709098,-0.72706 1.312719,-1.233052 1.470964,-1.233052 0.05145,0 0.09354,-0.03562 0.09354,-0.07915 0,-0.04353 0.10465,-0.13514 0.232559,-0.203584 0.618438,-0.330917 1.87921,-0.966911 2.099439,-1.059053 0.47079,-0.196982 1.43342,-0.554083 1.938668,-0.719175 0.602142,-0.196756 1.636946,-0.292035 1.818201,-0.167413 0.108637,0.07469 0.12685,0.510169 0.12685,3.032518 v 2.945299 l -0.314972,0.324339 c -0.173231,0.178388 -0.496702,0.39502 -0.718822,0.481403 -2.86169,1.112942 -3.916476,1.739569 -5.286006,3.140299 -0.937903,0.95927 -1.087495,1.158466 -1.628339,2.168266 -0.176095,0.328794 -0.353062,0.634312 -0.393256,0.678935 -0.04019,0.04462 -0.07308,0.134891 -0.07308,0.200594 0,0.06571 -0.05323,0.240563 -0.118287,0.388573 -0.245181,0.557812 -0.542531,1.691864 -0.652752,2.489521 -0.220638,1.596724 -0.240923,2.602603 -0.242306,12.0144 l -0.0017,9.96479 -0.360185,0.29805 c -0.299837,0.248114 -0.445071,0.304757 -0.866819,0.338084 -0.278647,0.02201 -0.753992,0.01 -1.05632,-0.02676 z m 15.867854,-1.258543 c -0.253416,-0.02644 -0.416775,-0.124906 -0.727185,-0.438374 -0.376697,-0.38041 -0.406097,-0.443337 -0.497694,-1.065253 -0.0701,-0.475979 -0.09735,-4.273989 -0.09735,-13.570367 0,-12.512917 0.02653,-14.051125 0.262506,-15.223078 0.04729,-0.234852 0.113571,-0.647416 0.147294,-0.916811 0.03372,-0.269393 0.107534,-0.536485 0.164029,-0.593533 0.05649,-0.05705 0.103921,-0.220937 0.105402,-0.364199 0.0017,-0.143255 0.05856,-0.335067 0.12685,-0.426243 0.06829,-0.09117 0.124162,-0.221972 0.124162,-0.290662 0,-0.256052 0.945974,-2.159031 1.377287,-2.770631 0.699753,-0.992256 2.218248,-2.465991 3.275744,-3.179191 1.050253,-0.708317 1.62785,-1.011145 2.832525,-1.485078 0.510904,-0.200993 1.053894,-0.419572 1.206636,-0.485729 0.15274,-0.06616 0.463122,-0.120285 0.689733,-0.120285 h 0.41202 l 0.1348,0.399517 c 0.10933,0.324026 0.134799,0.806336 0.134799,2.55258 0,2.391834 -0.100073,3.220646 -0.474983,3.933841 -0.230996,0.439423 -1.298839,1.824744 -1.406644,1.824852 -0.03489,3.4e-5 -0.06343,0.03812 -0.06343,0.08463 0,0.04651 -0.162213,0.325133 -0.360469,0.619151 -0.198262,0.29402 -0.488787,0.803596 -0.645613,1.132386 -0.156827,0.328794 -0.317604,0.663755 -0.357286,0.744367 -0.123888,0.251679 -0.467729,1.676346 -0.582966,2.415449 -0.04737,0.303859 -0.08058,5.540646 -0.08159,12.867043 -0.0017,11.91391 -0.0074,12.36784 -0.161122,12.724674 -0.346117,0.803357 -0.831852,1.050353 -2.758162,1.402527 -1.314746,0.240366 -2.069719,0.302413 -2.779299,0.228414 z m -28.552996,-2.048568 c -1.44395,-0.549451 -3.703415,-2.231857 -4.504766,-3.354266 -0.62066,-0.869327 -1.107904,-1.968441 -1.343976,-3.031718 -0.161934,-0.729354 -0.228253,-8.287407 -0.177238,-20.198903 0.0349,-8.149481 0.02245,-11.366355 -0.0445,-11.492686 -0.158349,-0.298792 -0.649492,-0.376199 -2.396088,-0.377651 -1.705402,-0.0013 -2.718439,0.110995 -3.964866,0.439976 -0.348842,0.09207 -0.786479,0.207875 -0.972527,0.257344 -0.186049,0.04947 -0.471465,0.146291 -0.634257,0.215168 -0.162793,0.06888 -0.372098,0.154666 -0.465122,0.190641 -0.464018,0.179447 -1.595745,0.767021 -2.190009,1.137012 -0.85266,0.530869 -1.358202,0.76267 -1.523574,0.698586 -0.179708,-0.06964 -0.427163,-0.509905 -0.552852,-0.98362 -0.186822,-0.704125 -0.0012,-3.869787 0.241284,-4.114645 0.05102,-0.05152 0.09276,-0.179795 0.09276,-0.285054 0,-0.10526 0.03476,-0.213077 0.07725,-0.239596 0.04249,-0.02653 0.156696,-0.213944 0.253797,-0.416499 0.231894,-0.483747 1.154195,-1.412168 1.903682,-1.916313 0.70221,-0.472343 0.891558,-0.591286 1.063407,-0.667993 0.06977,-0.03115 0.358191,-0.167158 0.64094,-0.302252 0.282749,-0.135097 0.570067,-0.245626 0.638485,-0.245626 0.06842,0 0.160549,-0.03438 0.204736,-0.07641 0.135228,-0.128602 2.372849,-0.60599 3.674463,-0.783932 0.934171,-0.127712 5.039076,-0.05402 7.653367,0.137381 2.356892,0.172565 8.849677,0.267064 9.471571,0.137854 0.232562,-0.04832 0.917558,-0.128813 1.522219,-0.178875 1.426072,-0.118074 2.442721,-0.237392 2.917582,-0.342423 0.209303,-0.04629 0.627913,-0.125101 0.930243,-0.175127 0.302328,-0.05003 0.739967,-0.123981 0.972526,-0.164344 2.094942,-0.363599 5.953618,-1.584405 8.133543,-2.573283 0.317305,-0.14394 0.653032,-0.294346 0.746055,-0.334238 0.09303,-0.03989 0.416498,-0.187237 0.718826,-0.327443 1.455649,-0.675049 1.705126,-0.749732 2.038584,-0.61025 0.445566,0.186379 0.498661,0.416163 0.496428,2.148374 -9.47e-4,0.85954 -0.04181,1.716519 -0.09045,1.904402 -0.04864,0.187881 -0.107892,0.437679 -0.131678,0.555103 -0.159275,0.786311 -1.145293,2.050487 -2.326218,2.982443 -0.123617,0.09756 -0.249953,0.177374 -0.280749,0.177374 -0.03079,0 -0.215069,0.109239 -0.409499,0.242755 -0.19443,0.133512 -0.619897,0.368917 -0.945482,0.52312 -0.325583,0.1542 -0.76872,0.367676 -0.984742,0.474385 -0.216027,0.106708 -0.510519,0.220136 -0.65443,0.252053 -0.143913,0.03192 -0.283369,0.09351 -0.309905,0.136867 -0.02653,0.04336 -0.125749,0.07883 -0.220481,0.07883 -0.09473,0 -0.27325,0.05268 -0.396707,0.117072 -0.123453,0.06439 -0.452799,0.183894 -0.731873,0.26556 -0.279073,0.08166 -0.640599,0.197068 -0.80339,0.256454 -0.294762,0.107521 -0.789927,0.246602 -1.353082,0.380049 -0.162793,0.03857 -0.486264,0.115846 -0.718823,0.171714 -0.93799,0.225332 -1.203718,0.281269 -1.649069,0.34714 -0.255817,0.03784 -0.731511,0.111484 -1.057096,0.163664 -2.249799,0.360541 -3.397533,0.434955 -7.797303,0.505552 -2.437328,0.03911 -3.513402,0.08529 -3.581022,0.153699 -0.072,0.07283 -0.09375,4.889822 -0.08523,18.873504 0.01094,17.945022 0.0047,18.781465 -0.139951,18.905682 -0.471088,0.404419 -0.659,0.475937 -0.954788,0.363383 z m 42.730922,-1.184131 c 0.255833,0 -0.338953,-0.193316 -0.430291,-0.473567 -0.08874,-0.272272 -0.116616,-6.779522 -0.109319,-25.519605 0.0054,-13.834774 0.03965,-25.661105 0.07614,-26.280729 0.06599,-1.120496 0.06808,-1.127951 0.387559,-1.377035 0.629298,-0.490655 2.662333,-0.731415 3.401757,-0.40285 0.310993,0.138191 0.574652,-0.174803 0.577887,1.43788 l 0.102119,50.915474 c -0.353006,0.721643 -1.088148,1.187937 -1.951706,1.485335 -0.738438,0.229586 -2.415224,0.215097 -2.054163,0.215097 z m 7.729481,-2.575461 c 0.114143,0.05707 -0.216698,-0.272886 -0.267582,-0.420294 -0.06611,-0.191505 -0.09472,-7.492783 -0.100217,-25.576189 -0.0064,-21.079642 0.01146,-25.372391 0.107036,-25.692483 0.100342,-0.336073 0.153441,-0.394225 0.423128,-0.463376 0.317499,-0.08141 1.388287,0.01553 2.211459,0.200223 0.860709,0.193109 1.788099,0.631107 2.539092,1.199187 0.589685,0.446062 1.591326,1.565033 1.595171,2.556141 l 0.170322,43.90509 c 0.0034,0.864644 -0.465882,1.711152 -1.057045,2.254436 -0.235186,0.216137 -0.481748,0.392979 -0.547921,0.392979 -0.06617,0 -0.120311,0.03426 -0.120311,0.07614 0,0.04188 -0.09866,0.101147 -0.219244,0.13171 -0.120584,0.03057 -0.413124,0.15002 -0.650085,0.265459 -0.23696,0.115441 -0.479509,0.209894 -0.538993,0.209894 -0.05949,0 -0.252156,0.06297 -0.428155,0.139939 -0.175999,0.07696 -0.396108,0.170663 -0.489131,0.208214 -0.09302,0.03755 -0.483627,0.202465 -0.868009,0.36647 -0.875678,0.373626 -2.054114,0.09916 -1.759519,0.246458 z m 13.498014,-4.910853 c -0.09532,-0.105684 -0.21612,-0.276095 -0.268444,-0.378688 -0.06964,-0.136533 -0.09435,-5.138547 -0.09219,-18.660006 0.0026,-15.729569 0.02111,-18.574942 0.125187,-19.15667 0.06723,-0.375763 0.122987,-0.793335 0.123904,-0.927942 9.47e-4,-0.13461 0.05723,-0.422834 0.125136,-0.640506 0.06791,-0.217668 0.198864,-0.649081 0.291008,-0.958692 0.414509,-1.392793 1.314142,-3.038869 2.207112,-4.038403 1.376098,-1.540303 3.074954,-2.661009 4.9894918,-3.291472 1.2444761,-0.40981 1.7503223,-0.476514 3.5988975,-0.47458 1.8296672,0.0019 2.1447206,0.04716 3.0524414,0.438383 0.1465648,0.06317 0.3077284,0.114856 0.3581391,0.114856 0.050415,0 0.2772031,0.115291 0.5039785,0.256202 0.2267772,0.140911 0.4383193,0.256202 0.4700967,0.256202 0.1204209,0 1.12117033,0.883895 1.43361154,1.266218 0.74070035,0.906361 0.98449522,1.599581 0.98458236,2.799634 6.44e-5,0.899062 -0.0138088,0.975069 -0.26478087,1.451809 -0.29399156,0.558426 -0.44961453,0.735171 -0.9952108,1.130297 -0.35446435,0.256706 -0.40986444,0.26948 -1.16868673,0.26948 -0.6927843,0 -0.8812151,-0.03428 -1.446102,-0.263085 -0.3572356,-0.144699 -0.7922287,-0.317635 -0.966648,-0.384304 -0.1744211,-0.06667 -0.469517,-0.184771 -0.6557695,-0.262455 -0.4912379,-0.204882 -2.1047469,-0.19683 -2.6836718,0.01339 -0.6303927,0.228922 -1.2776818,0.713806 -1.7668456,1.323548 -0.4311441,0.537425 -0.9615316,1.473262 -0.9614706,1.696447 1.7e-5,0.06415 -0.05511,0.294735 -0.122509,0.512403 -0.136734,0.441602 -0.302364,1.855021 -0.301112,2.569541 9.47e-4,0.633821 0.190318,2.309748 0.260762,2.309748 0.08729,0 1.8403711,-0.470513 2.6999201,-0.724639 0.8336855,-0.246477 1.3068924,-0.380415 1.5222154,-0.430852 0.3092078,-0.07243 0.9398978,-0.251811 1.9450551,-0.553223 3.0585692,-0.917148 3.0164115,-0.910888 3.15662507,-0.468998 0.044711,0.140911 0.0853287,1.313034 0.0902612,2.604716 0.0102666,2.689157 -0.010494,2.787942 -0.67940737,3.235386 -0.3761038,0.251577 -1.3578676,0.615343 -2.2292082,0.825974 -0.9972508,0.241071 -1.2227021,0.305531 -1.3074682,0.373814 -0.048342,0.03895 -0.2210908,0.08976 -0.3838853,0.112924 -0.1627907,0.02317 -0.4101505,0.08292 -0.5496897,0.132797 -0.1395335,0.04988 -0.4820321,0.155693 -0.7611048,0.235148 -0.2790746,0.07945 -0.6596299,0.191253 -0.8456777,0.248445 -0.1860498,0.0572 -0.5666012,0.171338 -0.8456759,0.253651 -0.2790727,0.08232 -0.6323778,0.203535 -0.7851196,0.269378 -0.1527438,0.06584 -0.3810762,0.119907 -0.5074071,0.120139 -0.1263308,1.89e-4 -0.343857,0.09266 -0.483392,0.205384 l -0.253704,0.204957 -0.04228,12.070935 c -0.04054,11.573036 -0.04875,12.080559 -0.199029,12.304283 -0.250673,0.373181 -1.05911,0.798913 -1.915163,1.008542 -0.16279,0.03987 -0.505293,0.130184 -0.761106,0.200709 -0.255818,0.07052 -0.636375,0.171982 -0.845676,0.225457 -0.209307,0.05348 -0.456667,0.129119 -0.54969,0.168095 -0.167467,0.07016 -0.604807,0.210288 -1.453541,0.465723 -0.573484,0.172597 -0.641208,0.167787 -0.846759,-0.06011 z M 4.6208705,61.650836 C 4.2402982,61.610168 3.8597449,61.540174 3.7751947,61.495302 3.6906464,61.45043 3.4514488,61.385247 3.243644,61.350452 2.1011221,61.15914 0.05799964,59.951631 -0.92701839,58.885547 -1.8700815,57.864868 -2.5216685,56.881165 -2.9707261,55.800152 c -0.058535,-0.140911 -0.1690246,-0.401621 -0.2455281,-0.579353 -0.076507,-0.177733 -0.1391016,-0.419829 -0.1391016,-0.537993 0,-0.118163 -0.051945,-0.318619 -0.1154316,-0.445455 -0.3016139,-0.60259 -0.3292031,-4.253881 -0.036464,-4.826565 0.043614,-0.08532 0.1107339,-0.33512 0.1491618,-0.555103 0.14701,-0.841654 0.7615159,-2.261906 1.4293685,-3.303586 0.2108015,-0.328794 0.4051005,-0.617021 0.4317805,-0.640506 0.026693,-0.0235 0.2072441,-0.246858 0.4012534,-0.496382 0.31079132,-0.399731 1.01222462,-1.096476 1.74204082,-1.730405 0.60109678,-0.522125 2.90371138,-1.787032 3.25307658,-1.787032 0.045791,0 0.1922627,-0.05741 0.3254866,-0.127578 0.1332258,-0.07016 0.3202435,-0.127812 0.4155944,-0.128098 0.095347,-3.78e-4 0.2095153,-0.03491 0.2536998,-0.07693 0.044188,-0.04202 0.2515895,-0.115959 0.4608945,-0.164299 0.2093051,-0.04835 0.5898584,-0.149912 0.8456759,-0.225707 0.2558174,-0.07579 0.7315115,-0.196606 1.0570966,-0.268478 0.3255852,-0.07187 0.839334,-0.186438 1.141662,-0.254596 0.3023299,-0.06816 0.7970476,-0.162476 1.0993756,-0.209602 0.3023337,-0.04713 0.6127224,-0.105501 0.6897614,-0.12972 0.174111,-0.05474 1.520372,-0.279321 2.312391,-0.385753 0.325585,-0.04375 0.67939,-0.117824 0.786228,-0.164603 0.106841,-0.04678 0.34032,-0.08505 0.51884,-0.08505 0.178515,0 0.528738,-0.06199 0.77827,-0.137763 0.249531,-0.07577 0.501259,-0.151422 0.5594,-0.168119 0.175014,-0.05026 0.127331,-0.902872 -0.08128,-1.453382 -0.366409,-0.966922 -1.495435,-1.90804 -2.519169,-2.099895 -1.115855,-0.20912 -1.573501,-0.231365 -2.325608,-0.113043 -0.4186087,0.06586 -0.8943028,0.135358 -1.0570972,0.15445 -0.5377239,0.06306 -1.9604874,0.451073 -2.2963714,0.626262 -0.1234592,0.06439 -0.2802774,0.117073 -0.34849,0.117073 -0.1633267,0 -1.150273,0.430072 -2.2861596,0.996221 -0.5027321,0.250572 -1.0038635,0.455589 -1.1136219,0.455589 -0.1353625,0 -0.2561963,-0.09254 -0.3755962,-0.287635 -0.1642473,-0.268368 -0.1758343,-0.409906 -0.1730365,-2.113661 0.00225,-1.422015 0.029728,-1.873268 0.1238551,-2.039533 0.066472,-0.117424 0.1222052,-0.282393 0.1238551,-0.366595 0.00358,-0.183049 0.5549954,-0.953616 1.0458091,-1.461454 0.6897403,-0.713672 1.6572122,-1.32613 2.7840216,-1.762431 0.2441056,-0.09452 0.5199392,-0.205893 0.6129659,-0.2475 0.1939146,-0.08673 1.0510409,-0.288424 2.0175241,-0.474746 1.0138749,-0.195463 3.5966689,-0.173628 4.5787489,0.0387 1.137225,0.245877 1.896714,0.481401 2.410175,0.747421 0.116279,0.06024 0.239624,0.10977 0.274099,0.11006 0.140488,0.0013 1.733223,1.045134 2.239865,1.468116 1.39787,1.167045 2.7059,3.14043 3.187804,4.809344 0.08138,0.281824 0.184724,0.627694 0.22966,0.768604 0.232265,0.728345 0.321721,2.656657 0.328826,7.088242 0.0092,5.742976 0.07303,6.524332 0.654644,8.014425 0.463727,1.188059 1.249964,2.172531 2.273653,2.846908 0.379231,0.249824 0.721731,0.454465 0.76111,0.454753 0.03938,3.79e-4 0.177861,0.0565 0.307736,0.12491 0.129871,0.06841 0.367902,0.149344 0.528961,0.179856 0.161054,0.0305 0.530017,0.13763 0.819911,0.238044 0.606976,0.210239 0.70969,0.357124 0.83314,1.191429 0.09471,0.640057 -0.102284,2.026482 -0.372365,2.620659 -0.208937,0.459671 -0.998503,1.261196 -1.460507,1.482628 -0.182364,0.0874 -0.407683,0.19975 -0.500709,0.249661 -0.492587,0.264281 -2.009442,0.444962 -2.77765,0.330866 -0.906741,-0.134674 -1.347417,-0.228643 -1.535297,-0.327382 -0.09302,-0.04889 -0.416494,-0.212999 -0.718824,-0.364694 -0.767051,-0.384864 -1.492358,-0.987664 -2.101866,-1.746838 -0.28585,-0.35605 -0.519728,-0.673536 -0.519728,-0.705529 0,-0.03199 -0.05433,-0.118839 -0.120734,-0.192992 -0.166948,-0.186438 -0.640377,-1.164021 -0.640377,-1.322317 0,-0.198788 -0.342597,-0.483862 -0.48487,-0.403456 -0.06657,0.03762 -0.584081,0.527737 -1.150023,1.089143 -1.222088,1.212295 -1.730355,1.648665 -2.635771,2.262917 -0.741708,0.503195 -0.752539,0.509586 -1.606786,0.948212 -0.695512,0.357126 -1.045104,0.510205 -1.564498,0.685063 -0.7275454,0.244932 -0.983808,0.319905 -1.399804,0.409535 -0.2301187,0.04958 -0.5706227,0.125914 -0.7566724,0.169631 -0.4912551,0.115428 -2.928662,0.170043 -3.7363835,0.08372 z M 8.946993,55.019881 c 1.0337467,-0.317967 2.029139,-0.797127 2.70359,-1.301458 0.716276,-0.535602 1.045322,-0.846217 1.971614,-1.861166 0.211977,-0.232269 0.751988,-1.063171 0.872708,-1.342818 0.04272,-0.09896 0.110404,-0.237565 0.150421,-0.30802 0.23629,-0.416032 0.350489,-0.686062 0.350489,-0.828749 0,-0.08904 0.04174,-0.204049 0.09275,-0.255566 0.184229,-0.186044 0.434983,-2.779665 0.396589,-4.102044 l -0.02421,-0.834373 -0.328271,-0.02718 c -0.180553,-0.01494 -0.368927,0.01389 -0.418612,0.06405 -0.04968,0.05017 -0.213442,0.09123 -0.363903,0.09123 -0.150461,0 -0.380699,0.04428 -0.511635,0.09841 -0.130936,0.05412 -0.428342,0.124882 -0.660905,0.157237 -0.533647,0.07425 -1.396524,0.245435 -1.945053,0.385887 -0.23256,0.05954 -0.613117,0.156648 -0.845676,0.215782 -0.23256,0.05913 -0.5560312,0.12602 -0.7188257,0.148639 -0.1627907,0.02263 -0.3710501,0.09376 -0.4627963,0.158091 -0.091744,0.06433 -0.2712156,0.116964 -0.3988288,0.116964 -0.1276075,0 -0.3569874,0.05377 -0.5097293,0.119481 -0.1527438,0.06571 -0.448961,0.185146 -0.6582679,0.26541 -0.9395323,0.360278 -1.9178751,1.024628 -2.727307,1.852 -0.3604672,0.368459 -0.6553982,0.705928 -0.6553982,0.749933 0,0.044 -0.096101,0.223017 -0.2135632,0.397807 -0.1174565,0.174789 -0.2351952,0.416686 -0.2616365,0.537544 -0.026436,0.120861 -0.108959,0.354251 -0.1833732,0.518646 -0.1009086,0.222934 -0.1343453,0.559376 -0.1315532,1.323707 0.00358,0.977276 0.016555,1.051922 0.2800406,1.609455 0.3686274,0.780036 0.9937239,1.402056 1.8268505,1.817867 0.3581714,0.178759 0.8268265,0.352282 1.0414505,0.385605 0.5520631,0.08571 1.8304552,0.0023 2.3330528,-0.152369 z M -47.288226,27.641597 c -0.232562,-0.04455 -0.479922,-0.114123 -0.549689,-0.154619 -0.06977,-0.04049 -0.272201,-0.153254 -0.449854,-0.250573 -0.344957,-0.188974 -0.902153,-0.750787 -0.902822,-0.9103 -1.89e-4,-0.05296 -0.05749,-0.144135 -0.127257,-0.202609 -0.06977,-0.05847 -0.12685,-0.174075 -0.12685,-0.256896 0,-0.08282 -0.05685,-0.260659 -0.126333,-0.395197 -0.08651,-0.167517 -0.126492,-0.504863 -0.12685,-1.070345 -5.68e-4,-0.797 0.03342,-0.943667 0.352203,-1.522782 0.03879,-0.07045 0.108486,-0.217078 0.15489,-0.325827 0.158159,-0.370647 0.963943,-1.080129 1.564293,-1.377338 0.567287,-0.280842 0.632678,-0.293285 1.568171,-0.298404 0.793489,-0.0044 1.01848,0.02263 1.202112,0.144112 0.124253,0.0822 0.276825,0.14945 0.339046,0.14945 0.185459,0 0.93294,0.798423 1.175589,1.255709 0.873883,1.646883 0.208572,3.861913 -1.451904,4.833848 -0.74335,0.435108 -1.562119,0.560403 -2.494745,0.381771 z"
       style="fill:#ffffff;fill-opacity:1;stroke:#ffffff;stroke-width:0.189421;stroke-dasharray:none;stroke-opacity:1"
       id="path1-2"
       sodipodi:nodetypes="cssssssscsssssssssssssscscssssssccssccssssssscssssssscsssssssssccsssssssscssssssssssssssscssssssssssscsssssssssssssssscssscssssssssscssssssssssssssssssssssssscscssssssssssssssssssssscssssssssssssssscscssssssssssssssssssssssssscssssssssssssssssssssscsssssssscsssssscssssssssssssssssssssssssssssssscsssssssssssssssssssssssssscssscssscsssss" /><path
       style="fill:url(#linearGradient6);stroke:none;stroke-width:0.189421;stroke-opacity:1"
       d="m -89.185428,6.5810236 c 4.20688,-1.0035074 8.945272,-2.5419592 23.144131,-11.2749463 20.227805,-12.4410813 44.623962,-24.5947873 75.5732689,-1.3400291 0,0 -19.4190811,-5.7672842 -34.8803069,1.9816757 -17.477466,8.7594726 -34.899672,24.5089891 -54.970584,25.3687381 -6.018893,0.257824 -11.825124,-1.170721 -17.049557,-7.779697 0.836417,-1.863879 2.081443,-3.914457 3.195112,-5.6849357 9.271994,5.9875527 17.30367,6.0709387 31.537934,-0.3804568 11.426413,-5.1787917 19.959427,-10.4986741 30.032284,-16.8230782 -14.580943,2.8175932 -38.579031,24.2133687 -56.582282,15.9327293 z"
       id="path3"
       sodipodi:nodetypes="cscssccscc" /><path
       style="font-variation-settings:normal;opacity:1;vector-effect:none;fill:url(#radialGradient14);fill-opacity:1;stroke:none;stroke-width:0.189421;stroke-linecap:butt;stroke-linejoin:miter;stroke-miterlimit:4;stroke-dasharray:none;stroke-dashoffset:0;stroke-opacity:1;-inkscape-stroke:none;stop-color:#000000;stop-opacity:1"
       d="m 30.237891,39.631416 c 0,0 3.124274,-25.941262 -17.350085,-40.51673038 -15.95426,-11.35766062 -36.230253,-1.31246712 -40.319264,1.54767549 0,0 21.7391795,-9.08103601 38.701224,4.85818459 C 28.056008,19.315295 30.237891,39.631416 30.237891,39.631416 Z"
       id="path6"
       sodipodi:nodetypes="cscsc" /><path
       id="path8"
       style="fill:#008000;fill-opacity:1;stroke:none;stroke-width:0.189421;stroke-opacity:1"
       d="m 7.6893066,70.368225 c -3.6226851,0.05071 -8.02672422,0.507451 -13.3798746,1.554825 -17.95602,3.513197 -49.9132,23.678396 -78.722173,11.053805 6.369165,6.703739 20.192992,16.187455 47.27749,9.701212 26.952483,-6.454627 43.7824347,-21.715507 60.22089,-13.551568 0.496903,-0.73497 0.931681,-1.391316 1.2457,-1.88989 -0.31992,-1.226252 -2.562647,-7.065475 -16.6420324,-6.868384 z" /><path
       style="fill:url(#radialGradient10);stroke:none;stroke-width:0.189421;stroke-opacity:1"
       d="m -93.146292,77.630945 c 6.06974,7.520859 19.282127,22.221048 43.164808,19.575103 22.795691,-2.525518 34.453429,-10.465872 49.07923436,-15.097959 0,0 -22.62431336,11.455279 -26.93766736,13.43643 -4.313361,1.98115 -24.058817,12.543321 -44.050821,3.890014 -16.838291,-7.288259 -21.255554,-21.803588 -21.255554,-21.803588 z"
       id="path9"
       sodipodi:nodetypes="cscssc" /><path
       id="path11"
       style="font-variation-settings:normal;opacity:1;vector-effect:none;fill:url(#radialGradient11);fill-opacity:1;stroke:none;stroke-width:0.189421;stroke-linecap:butt;stroke-linejoin:miter;stroke-miterlimit:4;stroke-dasharray:none;stroke-dashoffset:0;stroke-opacity:1;-inkscape-stroke:none;stop-color:#000000;stop-opacity:1"
       d="m 14.253853,80.538509 c -3.692059,-0.06674 -8.7598367,0.81638 -15.1098194,4.16731 -13.4345306,7.089497 -31.6309676,21.015371 -54.1451876,21.308761 0,0 15.571196,5.41041 33.435982,-3.93014 28.8384599,-15.078087 32.401186,-15.556741 38.901364,-14.733734 0.307727,-0.430833 1.952242,-2.737874 3.735143,-5.297506 -0.867851,-0.455164 -3.16248,-1.448625 -6.817482,-1.514691 z" /></g></svg>
